<?xml version="1.0" encoding="UTF-8" standalone="no"?>
<!-- Created with Inkscape (http://www.inkscape.org/) -->

<svg
   version="1.1"
   id="svg2"
   width="3599.0266"
   height="748.88"
   viewBox="0 0 3599.0266 748.88"
   sodipodi:docname="uninter-seeklogo.eps"
   xmlns:inkscape="http://www.inkscape.org/namespaces/inkscape"
   xmlns:sodipodi="http://sodipodi.sourceforge.net/DTD/sodipodi-0.dtd"
   xmlns="http://www.w3.org/2000/svg"
   xmlns:svg="http://www.w3.org/2000/svg">
  <defs
     id="defs6" />
  <sodipodi:namedview
     id="namedview4"
     pagecolor="#ffffff"
     bordercolor="#000000"
     borderopacity="0.25"
     inkscape:showpageshadow="2"
     inkscape:pageopacity="0.0"
     inkscape:pagecheckerboard="0"
     inkscape:deskcolor="#d1d1d1" />
  <g
     id="g8"
     inkscape:groupmode="layer"
     inkscape:label="ink_ext_XXXXXX"
     transform="matrix(1.3333333,0,0,-1.3333333,0,748.88)">
    <g
       id="g10"
       transform="scale(0.1)">
      <path
         d="M 2543.82,5008.52 H 2067.5 c -101.36,0 -131.76,-40.55 -131.76,-141.89 V 2251.86 c 0,-273.65 -233.11,-415.52 -597.95,-415.52 -364.868,0 -587.829,141.87 -587.829,415.52 v 2614.77 c 0,101.34 -40.531,141.89 -131.758,141.89 H 141.879 C 40.5313,5008.52 0,4967.97 0,4866.63 V 2120.11 c 0,-466.18 344.566,-901.99 1337.79,-901.99 993.2,0 1337.79,435.81 1337.79,901.99 v 2746.52 c 0,101.34 -30.41,141.89 -131.76,141.89"
         style="fill:#274b82;fill-opacity:1;fill-rule:nonzero;stroke:none"
         id="path12" />
      <path
         d="m 5736.26,5008.52 h -435.79 c -101.35,0 -131.75,-40.55 -131.75,-141.89 V 2667.39 c 0,0 -91.21,222.96 -182.44,385.11 L 3881.61,4957.84 c -20.28,40.56 -50.68,50.68 -111.49,50.68 h -435.79 c -101.35,0 -131.75,-40.55 -131.75,-141.89 V 1410.67 c 0,-91.19 30.4,-141.89 131.75,-141.89 h 435.79 c 101.35,0 131.76,40.53 131.76,141.89 v 2199.26 c 10.13,-20.27 70.93,-202.71 222.96,-445.94 L 5188.99,1339.72 c 30.4,-50.65 50.67,-60.8 131.76,-60.8 h 435.79 c 101.33,0 131.74,40.56 131.74,141.91 v 3455.94 c -20.26,91.2 -50.66,131.75 -152.02,131.75"
         style="fill:#274b82;fill-opacity:1;fill-rule:nonzero;stroke:none"
         id="path14" />
      <path
         d="m 7023.37,5008.52 h -476.32 c -101.36,0 -131.75,-40.55 -131.75,-141.89 V 1410.67 c 0,-101.36 30.39,-141.89 131.75,-141.89 h 476.32 c 101.36,0 131.76,40.53 131.76,141.89 v 3455.96 c 0,101.34 -30.4,141.89 -131.76,141.89"
         style="fill:#274b82;fill-opacity:1;fill-rule:nonzero;stroke:none"
         id="path16" />
      <path
         d="m 10246.2,5008.52 h -435.78 c -101.34,0 -131.75,-40.55 -131.75,-141.89 V 2667.39 c 0,0 -91.19,222.96 -182.42,385.11 L 8381.43,4957.84 c -20.28,40.56 -50.67,50.68 -111.49,50.68 h -435.78 c -101.36,0 -131.75,-40.55 -131.75,-141.89 V 1410.67 c 0,-91.19 30.39,-141.89 131.75,-141.89 h 435.78 c 101.34,0 131.75,40.53 131.75,141.89 v 2199.26 c 10.15,-20.27 70.95,-202.71 222.97,-445.94 L 9688.8,1339.72 c 30.43,-50.65 50.67,-60.8 121.62,-60.8 h 435.78 c 101.4,0 131.8,40.56 131.8,141.91 v 3455.94 c 0,91.2 -30.4,131.75 -131.8,131.75"
         style="fill:#274b82;fill-opacity:1;fill-rule:nonzero;stroke:none"
         id="path18" />
      <path
         d="m 13266.4,5008.52 h -2310.7 c -101.4,0 -141.9,-30.41 -141.9,-131.75 v -344.59 c 0,-101.34 40.5,-141.88 141.9,-141.88 H 11736 V 1410.67 c 0,-101.36 40.6,-141.89 141.9,-141.89 h 476.3 c 101.4,0 131.8,40.53 131.8,141.89 v 2989.78 h 780.4 c 91.2,0 141.9,40.52 141.9,141.87 v 344.57 c -10.2,91.22 -50.7,121.63 -141.9,121.63"
         style="fill:#274b82;fill-opacity:1;fill-rule:nonzero;stroke:none"
         id="path20" />
      <path
         d="M 15921.7,1887 H 14594 v 1023.62 h 1175.7 c 101.3,0 141.8,40.56 141.8,131.75 v 334.45 c 0,101.35 -40.5,131.76 -141.8,131.76 H 14594 v 891.87 h 1266.9 c 91.2,0 141.8,40.52 141.8,141.87 v 344.57 c 0,101.35 -40.5,131.76 -141.8,131.76 h -1885.1 c -101.4,0 -131.8,-40.54 -131.8,-141.88 v -3466.1 c 0,-101.36 30.4,-141.89 131.8,-141.89 h 1935.7 c 101.4,0 141.9,40.53 141.9,141.89 v 344.57 c 10.2,101.36 -30.4,131.76 -131.7,131.76"
         style="fill:#274b82;fill-opacity:1;fill-rule:nonzero;stroke:none"
         id="path22" />
      <path
         d="m 17847.3,5008.52 h -1155.4 c -101.3,0 -131.7,-40.55 -131.7,-141.89 V 1410.67 c 0,-101.36 30.4,-141.89 131.7,-141.89 h 476.4 c 101.3,0 131.7,40.53 131.7,141.89 v 1287.11 h 547.3 30.4 l 537.1,-1287.11 c 40.6,-91.19 60.9,-141.89 141.9,-141.89 h 486.5 c 101.4,0 162.1,50.7 131.7,141.89 L 18577,2799.14 c 435.8,162.17 608.1,466.2 608.1,790.52 v 526.99 c -10.2,466.2 -344.6,891.87 -1337.8,891.87 m 597.9,-1287.11 c 0,-273.64 -223,-415.52 -597.9,-415.52 H 17300 v 1094.56 h 547.3 c 364.8,0 597.9,-141.92 597.9,-415.55 v -263.49"
         style="fill:#274b82;fill-opacity:1;fill-rule:nonzero;stroke:none"
         id="path24" />
      <path
         d="m 26188.2,3285.61 c -20.3,0 -30.4,-10.14 -30.4,-30.41 0,-10.14 10.1,-20.26 20.2,-30.39 1337.8,-587.83 -496.6,-2067.49 -2594.4,-2685.72 -10.2,0 -20.3,0 -40.6,10.14 -91.2,131.75 -263.5,172.282 -415.5,101.36 -91.2,-50.699 -152,-131.75 -172.3,-222.961 0,0 0,-10.149 -10.1,-10.149 -10.2,-40.562 -40.6,-40.562 -50.7,-50.66 -800.7,-152.05 -1591.2,-162.179 -2229.7,70.918 -597.9,222.953 -780.3,668.932 -101.3,1398.602 0,10.15 10.1,10.15 10.1,20.26 0,20.3 -10.1,30.4 -30.4,30.4 -10.1,0 -20.2,0 -20.2,-10.1 -952.7,-902.002 -861.5,-1469.572 -202.8,-1712.779 679.1,-253.371 1641.9,-192.5702 2625,40.52 20.2,10.129 30.4,0 40.5,-10.121 91.2,-172.3091 273.6,-233.1216 445.9,-152.0005 121.6,60.7895 192.6,192.5115 182.4,324.2615 0,20.289 30.4,30.438 30.4,30.438 2412.1,790.491 4570.8,2432.321 2543.9,2888.391"
         style="fill:#274b82;fill-opacity:1;fill-rule:nonzero;stroke:none"
         id="path26" />
      <path
         d="m 24323.4,4086.25 c 20.2,0 435.8,-40.53 618.2,-60.8 h 10.2 c 40.5,0 81,40.52 81,81.08 v 10.12 c -30.4,273.65 -91.2,587.83 -91.2,587.83 -10.1,30.4 -30.4,50.68 -60.8,60.8 -162.1,40.55 -364.9,81.09 -618.2,101.35 h -10.2 c -40.5,0 -81,-40.54 -81,-81.08 0,0 40.5,-364.86 50.6,-618.22 v -10.12 c 20.3,-30.41 50.7,-60.81 101.4,-70.96 m 739.8,-841.19 c 0,152.04 0,293.91 0,415.54 0,40.53 -30.4,81.09 -70.9,81.09 -182.5,20.24 -405.4,30.39 -638.5,50.65 -40.6,0 -81.1,-40.53 -81.1,-81.08 0,-121.6 0,-243.24 0,-364.85 0,-162.15 0,-314.16 -10.1,-466.19 0,-40.53 40.5,-81.08 81,-81.08 0,0 0,0 10.2,0 243.2,10.14 456,30.4 648.6,50.68 40.5,10.13 71,40.53 71,81.08 -10.2,101.35 -10.2,202.68 -10.2,314.16 m -3537,-405.37 c 233.1,-20.27 658.7,-50.69 658.7,-50.69 40.6,0 81.1,40.54 81.1,81.1 -10.1,152.01 -10.1,314.16 -10.1,476.31 0,131.76 0,253.38 10.1,364.85 0,40.55 -30.4,81.08 -81.1,81.08 -243.2,-10.13 -466.1,-30.41 -658.7,-50.65 -40.5,0 -71,-40.56 -71,-81.09 0,0 0,-263.5 0,-415.54 0,-121.61 0,-222.95 0,-334.44 -10.1,-40.52 20.3,-70.93 71,-70.93 m 729.7,-1135.1 c 40.5,0 81.1,40.55 81.1,81.06 0,0 0,0 0,10.15 -20.3,182.41 -40.6,385.11 -60.8,618.22 0,40.56 -40.6,70.95 -81.1,81.07 l -658.8,70.94 c -40.5,0 -81.1,-30.41 -81.1,-81.06 v -10.15 c 20.3,-243.21 81.1,-597.92 81.1,-597.92 10.2,-30.41 30.4,-50.7 60.8,-60.81 10.2,-10.14 354.8,-81.09 658.8,-111.5 m 70.9,3070.82 v 10.14 c 0,40.54 -40.5,81.08 -81,81.08 h -10.2 c -253.3,-30.4 -456,-70.94 -618.2,-111.47 -30.4,-10.15 -50.7,-30.43 -60.8,-60.83 -40.6,-162.15 -70.9,-354.72 -91.2,-597.93 v -10.15 c 0,-40.53 40.5,-81.08 81.1,-81.08 h 10.1 c 172.3,20.28 597.9,60.8 628.3,60.8 h 10.2 c 20.2,0 70.9,20.28 81.1,70.96 10.1,253.37 30.4,466.19 50.6,638.48 m 1611.5,-2381.63 c 0,40.51 -40.6,81.04 -81.1,81.04 -212.9,-10.14 -435.8,-20.24 -668.9,-20.24 -182.4,0 -364.8,0 -527,10.1 -40.5,0 -81.1,-40.51 -81.1,-81.05 l 40.6,-628.39 c 0,-40.51 40.5,-81.06 81,-81.06 0,0 354.7,-10.15 567.6,-10.15 202.7,0 547.3,10.15 547.3,10.15 40.5,0 70.9,30.41 70.9,70.96 z m 233.1,-608.13 c 0,-40.51 40.5,-81.06 81,-81.06 h 10.2 c 263.5,20.26 466.2,60.8 638.5,101.36 30.4,10.14 50.7,30.39 60.8,60.8 40.5,162.16 70.9,374.96 91.2,628.34 0,0 0,0 0,10.14 0,40.54 -40.5,81.1 -81.1,81.1 h -10.1 c -182.4,-20.3 -405.4,-50.71 -648.7,-70.95 -40.5,0 -70.9,-30.41 -70.9,-81.09 -30.4,-243.24 -50.7,-456.08 -70.9,-648.64 m -344.6,3770.14 c 20.3,-182.43 131.7,-1003.34 131.7,-2209.38 0,-172.27 0,-334.43 -10.1,-486.46 0,-40.53 -40.5,-81.06 -81.1,-81.06 -212.8,-10.15 -445.9,-10.15 -689.1,-10.15 -192.6,0 -375,0 -537.2,10.15 -40.5,0 -81,40.53 -81,81.06 0,162.16 -10.2,324.31 -10.2,496.6 0,1206.05 101.3,2026.97 131.8,2209.37 0,0 0,0 0,10.14 0,20.27 -20.3,40.54 -40.6,40.54 0,0 0,0 -10.1,0 -30.4,0 -91.3,-10.13 -131.8,-20.27 -50.7,-10.13 -60.8,-60.81 -60.8,-60.81 0,0 -30.4,-131.75 -70.9,-374.98 -10.2,-30.41 -30.4,-60.81 -71,-60.81 -243.2,-30.41 -435.8,-70.93 -597.9,-111.49 h -10.1 c -20.3,0 -40.6,10.16 -40.6,30.41 0,10.15 10.1,20.27 10.1,20.27 v 10.13 c 40.6,111.49 111.5,212.83 202.7,304.06 10.2,10.12 10.2,20.25 10.2,20.25 0,10.16 -10.2,10.16 -20.3,0 -202.7,-91.21 -354.7,-273.63 -415.5,-496.59 -182.5,-60.81 -344.6,-192.57 -435.8,-364.85 0,-10.15 0,-20.28 0,-20.28 10.1,0 20.3,0 20.3,0 81,70.96 172.2,121.64 283.7,162.16 h 10.2 c 20.2,0 40.5,-20.28 40.5,-40.52 v -10.16 c 0,0 0,0 0,-10.12 -40.5,-152.03 -71,-344.58 -91.2,-567.55 0,-30.41 -30.4,-60.8 -60.8,-70.95 -233.1,-40.54 -354.7,-70.93 -354.7,-70.93 0,0 -50.7,-10.15 -60.8,-60.8 0,-30.43 -10.2,-91.23 -20.3,-131.76 0,0 0,0 0,-10.14 0,-20.27 20.3,-40.54 40.5,-40.54 0,0 0,0 10.2,0 60.8,10.13 192.5,30.41 374.9,50.68 0,0 0,0 10.2,0 20.2,0 40.5,-20.27 40.5,-40.55 -10.1,-131.75 -10.1,-273.64 -10.1,-425.65 0,-101.36 0,-192.56 10.1,-283.78 0,0 0,0 0,-10.13 0,-40.55 -40.5,-81.08 -81.1,-81.08 h -10.1 c -162.2,20.28 -273.6,40.53 -324.3,40.53 0,0 0,0 -10.1,0 -20.3,0 -40.6,-20.25 -40.6,-40.53 0,0 0,0 0,-10.13 0,-30.41 10.2,-91.21 20.3,-131.75 10.1,-50.7 60.8,-60.81 60.8,-60.81 0,0 121.6,-30.39 344.6,-70.95 30.4,-10.15 60.8,-30.41 60.8,-70.95 20.2,-212.82 50.6,-385.12 81.1,-537.14 0,-10.14 10.1,-30.39 10.1,-40.53 0,0 0,0 0,-10.15 v -10.12 c 0,-20.29 -20.3,-40.54 -40.5,-40.54 h -10.2 c -101.3,30.4 -202.7,91.2 -283.7,162.16 -10.2,10.15 -20.3,10.15 -20.3,0 -10.1,0 -10.1,-10.14 0,-20.26 91.2,-172.31 253.3,-304.06 435.8,-364.86 60.8,-212.82 222.9,-395.28 415.5,-496.61 10.1,0 20.3,0 20.3,0 0,10.14 0,20.29 -10.2,20.29 -91.2,81.04 -152,182.4 -202.7,304.01 v 10.15 l -10.1,20.25 c 0,20.31 20.3,30.4 40.6,30.4 h 10.1 10.1 c 162.2,-40.5 364.9,-81.05 608.1,-111.45 30.4,0 60.8,-30.4 70.9,-60.81 0,0 0,-20.3 0,-30.39 40.6,-233.12 60.8,-364.88 60.8,-364.88 0,0 10.2,-50.66 50.7,-50.66 30.4,-10.149 101.4,-20.289 141.9,-20.289 20.3,0 40.6,20.289 40.6,40.551 l -40.6,354.718 v 10.15 c 0,40.5 40.6,81.05 81.1,81.05 162.2,-10.14 334.4,-20.25 527,-20.25 192.5,0 364.8,10.11 516.9,20.25 40.5,0 81.1,-30.4 81.1,-81.05 v -10.15 c -20.3,-172.3 -30.4,-293.91 -40.6,-354.718 0,-20.262 20.3,-40.551 40.6,-40.551 40.5,0 111.4,10.14 141.8,20.289 40.6,10.121 50.7,50.66 50.7,50.66 0,0 30.4,131.76 71,374.97 10.1,40.55 30.4,60.82 70.9,70.95 212.8,20.3 395.2,50.71 537.2,91.21 20.2,10.16 40.5,10.16 60.8,20.31 h 10.1 10.1 c 20.3,0 40.6,-20.31 40.6,-30.41 0,-10.15 -10.2,-20.3 -10.2,-30.4 v -10.15 c -40.5,-111.51 -111.4,-212.86 -202.7,-304.05 -10.1,-10.12 -10.1,-20.27 -10.1,-20.27 0,-10.14 10.1,-10.14 20.3,0 202.7,91.21 354.7,273.63 415.5,496.63 182.4,60.78 344.6,192.55 435.8,364.82 0,10.14 0,20.29 0,20.29 -10.2,0 -20.3,0 -20.3,0 -81.1,-70.95 -172.3,-121.65 -283.8,-162.16 h -10.1 c -20.3,0 -40.5,20.26 -40.5,40.51 v 10.15 10.14 c 0,10.12 10.1,30.41 10.1,40.51 0,20.29 10.1,40.56 10.1,60.85 30.4,141.87 50.7,304.02 71,496.58 0,40.54 30.4,70.95 70.9,70.95 212.8,40.56 334.5,70.95 334.5,70.95 0,0 50.6,10.11 60.8,50.65 10.1,30.41 20.2,101.36 20.2,141.91 0,0 0,0 0,10.13 0,20.28 -20.2,40.53 -40.5,40.53 0,0 0,0 -10.1,0 -50.7,-10.13 -162.2,-20.25 -324.3,-40.53 h -10.2 c -40.5,0 -81,40.53 -81,81.08 0,91.21 10.1,182.4 10.1,273.63 0,152.02 -10.1,293.92 -10.1,415.52 0,20.28 20.2,40.55 40.5,40.55 0,0 0,0 10.1,0 192.6,-20.27 324.3,-40.55 395.3,-50.67 0,0 0,0 10.1,0 20.3,0 40.6,20.25 40.6,40.53 0,30.41 -10.2,91.23 -20.3,131.75 -10.2,50.67 -60.8,60.81 -60.8,60.81 0,0 -131.8,30.4 -364.9,81.08 -30.4,10.14 -60.8,40.55 -60.8,70.94 -20.3,222.97 -50.7,405.41 -91.2,557.41 v 10.15 c 0,0 0,0 0,10.12 v 10.13 c 0,20.27 20.3,40.55 40.5,40.55 h 10.2 c 101.3,-30.4 202.7,-91.22 283.7,-162.15 10.2,-10.13 20.3,-10.13 20.3,0 10.1,0 10.1,10.13 0,20.28 -91.2,172.27 -253.4,304.02 -435.8,364.84 -60.8,222.95 -222.9,395.24 -415.5,496.59 -10.1,0 -20.3,0 -20.3,0 0,-10.13 0,-20.28 10.2,-20.28 91.2,-81.07 152,-182.41 202.7,-304.03 0,0 0,0 0,-10.13 v -10.12 -10.16 c 0,-20.27 -20.3,-40.53 -40.6,-40.53 h -10.1 c -162.2,40.53 -354.7,81.09 -598,111.49 -30.4,0 -60.8,30.4 -70.9,60.8 -40.5,243.23 -71,374.99 -71,374.99 0,0 -10.1,50.67 -60.8,60.8 -40.5,0 -131.7,20.27 -131.7,20.27 -10.1,30.41 -30.4,10.14 -30.4,-20.27"
         style="fill:#f2b613;fill-opacity:1;fill-rule:evenodd;stroke:none"
         id="path28" />
    </g>
  </g>
</svg>
